<svg width="1000" height="1000" viewBox="0 0 1000 1000" fill="none" xmlns="http://www.w3.org/2000/svg">
<mask id="mask0" mask-type="alpha" maskUnits="userSpaceOnUse" x="229" y="85" width="534" height="832">
<path d="M762.212 467H555.693V446.053C561.781 445.516 569.211 444.62 577.983 443.367C586.935 442.114 593.022 440.771 596.245 439.339C602.869 436.653 607.614 432.983 610.479 428.328C613.343 423.673 614.775 417.765 614.775 410.604V125.936L483.721 460.823H449.883C448.271 454.915 444.243 443.188 437.798 425.643C431.532 408.097 426.429 394.043 422.49 383.479L326.079 121.639V353.401C326.079 375.602 327.511 392.521 330.376 404.158C333.42 415.617 338.254 424.031 344.878 429.402C349.354 433.162 357.321 436.743 368.779 440.145C380.417 443.546 388.563 445.516 393.218 446.053V467H229.399V446.053C233.875 445.516 241.126 444.352 251.152 442.562C261.357 440.592 269.683 437.28 276.128 432.625C283.289 427.612 288.123 419.197 290.63 407.381C293.136 395.385 294.39 378.377 294.39 356.355V167.562C294.39 156.103 292.957 146.614 290.093 139.095C287.228 131.396 282.931 125.309 277.202 120.833C270.041 115.283 262.7 111.702 255.181 110.091C247.661 108.479 240.052 107.405 232.354 106.868V85.9209H407.72L501.714 337.557L580.938 133.187C583.623 125.667 586.219 116.715 588.726 106.331C591.232 95.9469 592.575 89.1436 592.754 85.9209H761.675V106.868C755.946 107.226 749.948 107.942 743.682 109.017C737.415 110.091 731.418 111.523 725.688 113.313C718.706 115.641 714.051 119.311 711.724 124.324C709.575 129.337 708.501 134.887 708.501 140.975V410.872C708.501 417.317 709.575 422.778 711.724 427.254C714.051 431.551 718.706 435.311 725.688 438.533C729.269 440.145 735.088 441.666 743.145 443.099C751.38 444.531 757.736 445.516 762.212 446.053V467ZM762.212 917H555.693V896.053C561.781 895.516 569.211 894.62 577.983 893.367C586.935 892.114 593.022 890.771 596.245 889.339C602.869 886.653 607.614 882.983 610.479 878.328C613.343 873.673 614.775 867.765 614.775 860.604V575.936L483.721 910.823H449.883C448.271 904.915 444.243 893.188 437.798 875.643C431.532 858.097 426.429 844.043 422.49 833.479L326.079 571.639V803.401C326.079 825.602 327.511 842.521 330.376 854.158C333.42 865.617 338.254 874.031 344.878 879.402C349.354 883.162 357.321 886.743 368.779 890.145C380.417 893.546 388.563 895.516 393.218 896.053V917H229.399V896.053C233.875 895.516 241.126 894.352 251.152 892.562C261.357 890.592 269.683 887.28 276.128 882.625C283.289 877.612 288.123 869.197 290.63 857.381C293.136 845.385 294.39 828.377 294.39 806.355V617.562C294.39 606.103 292.957 596.614 290.093 589.095C287.228 581.396 282.931 575.309 277.202 570.833C270.041 565.283 262.7 561.702 255.181 560.091C247.661 558.479 240.052 557.405 232.354 556.868V535.921H407.72L501.714 787.557L580.938 583.187C583.623 575.667 586.219 566.715 588.726 556.331C591.232 545.947 592.575 539.144 592.754 535.921H761.675V556.868C755.946 557.226 749.948 557.942 743.682 559.017C737.415 560.091 731.418 561.523 725.688 563.313C718.706 565.641 714.051 569.311 711.724 574.324C709.575 579.337 708.501 584.887 708.501 590.975V860.872C708.501 867.317 709.575 872.778 711.724 877.254C714.051 881.551 718.706 885.311 725.688 888.533C729.269 890.145 735.088 891.666 743.145 893.099C751.38 894.531 757.736 895.516 762.212 896.053V917Z" fill="black"/>
</mask>
<g mask="url(#mask0)">
<path d="M813.088 581.98L238.913 971.174L119.525 571.105L813.088 581.98Z" fill="#DE73C6"/>
<path d="M221.448 936.612L820.186 586.382L912.76 993.493L221.448 936.612Z" fill="#2178AE"/>
<path d="M1001.71 695.035L316.066 589.935L500.588 215.421L1001.71 695.035Z" fill="#F15A42"/>
<path d="M554.989 106.734L272.976 740.467L-39.6979 463.8L554.989 106.734Z" fill="#84C07B"/>
<path d="M475.372 206.231L874.068 77.4781L785.08 488.395L475.372 206.231Z" fill="#FAC92C"/>
<path d="M190.786 85.6538L848.377 85.9257L-342.904 469.841L190.786 85.6538Z" fill="#1B4793"/>
</g>
</svg>
