<svg width="1500" height="1000" viewBox="0 0 1500 1000" fill="none" xmlns="http://www.w3.org/2000/svg">
<path d="M1500 999.557L1034.63 -60.0001H1500V999.557Z" fill="#2178AE" stroke="#2178AE"/>
<path d="M754.43 734.667L1245.01 999.557H1500L1034.37 -60.0001L754.43 734.667Z" fill="#DE73C6"/>
<path d="M263.85 469.778L754.43 734.667M754.43 734.667L1245.01 999.557H1500L1034.37 -60.0001L754.43 734.667Z" stroke="#DE73C6"/>
<path d="M755.194 734.667L263.85 469.778L763.522 -60.0001H1035.57L755.194 734.667Z" fill="#F15A42"/>
<path d="M1246.54 999.557L755.194 734.667M755.194 734.667L263.85 469.778L763.522 -60.0001H1035.57L755.194 734.667Z" stroke="#F15A42"/>
<path d="M263.397 469.778L0 -60.0001H762.466L263.397 469.778Z" fill="#FAC92C"/>
<path d="M526.794 999.557L263.397 469.778M263.397 469.778L0 -60.0001H762.466L263.397 469.778Z" stroke="#FAC92C"/>
<path d="M263.744 469.778L527.488 999.557L1246.54 999.557L263.744 469.778Z" fill="#84C07B"/>
<path d="M0 -60.0001L263.744 469.778M263.744 469.778L527.488 999.557L1246.54 999.557L263.744 469.778Z" stroke="#84C07B"/>
<path d="M0 -60.0001L0 999.557H525.623L0 -60.0001Z" fill="#1B4793" stroke="#1B4793"/>
<rect y="999.557" width="1059.56" height="1500" transform="rotate(-90 0 999.557)" fill="#BBBBBB" fill-opacity="0.25"/>
</svg>
